<?xml version="1.0" encoding="utf-8"?>
<!-- Generator: Adobe Illustrator 16.0.0, SVG Export Plug-In . SVG Version: 6.00 Build 0)  -->
<!DOCTYPE svg PUBLIC "-//W3C//DTD SVG 1.1//EN" "http://www.w3.org/Graphics/SVG/1.1/DTD/svg11.dtd" [
	<!ENTITY ns_flows "http://ns.adobe.com/Flows/1.0/">
	<!ENTITY ns_extend "http://ns.adobe.com/Extensibility/1.0/">
	<!ENTITY ns_ai "http://ns.adobe.com/AdobeIllustrator/10.0/">
	<!ENTITY ns_graphs "http://ns.adobe.com/Graphs/1.0/">
]>
<svg version="1.1" id="Warstwa_1" xmlns:x="&ns_extend;" xmlns:i="&ns_ai;" xmlns:graph="&ns_graphs;"
	 xmlns="http://www.w3.org/2000/svg" xmlns:xlink="http://www.w3.org/1999/xlink" xmlns:a="http://ns.adobe.com/AdobeSVGViewerExtensions/3.0/"
	 x="0px" y="0px" width="100px" height="100px" viewBox="0 0 100 100" enable-background="new 0 0 100 100" xml:space="preserve">
<g display="none">
	
		<image display="inline" overflow="visible" width="84" height="78" xlink:href="B92064EF.jpg"  transform="matrix(1.2173 0 0 -1.2121 2.2432 97.3271)">
	</image>
</g>
<path fill="none" stroke="#E0001A" stroke-width="2.8346" stroke-miterlimit="10" d="M48.875,56.875c0,4.689-3.806,8.5-8.5,8.5
	s-8.5-3.811-8.5-8.5c0-4.693,3.806-8.5,8.5-8.5S48.875,52.182,48.875,56.875z"/>
<path fill="none" stroke="#E0001A" stroke-width="2.8346" stroke-miterlimit="10" d="M60.875,56.875c0,11.317-9.183,20.5-20.5,20.5
	c-11.321,0-20.5-9.183-20.5-20.5c0-11.321,9.179-20.5,20.5-20.5C51.692,36.375,60.875,45.554,60.875,56.875z"/>
<circle fill="none" stroke="#E0001A" stroke-width="2.8346" stroke-miterlimit="10" cx="40.375" cy="56.875" r="31.875"/>
<line fill="none" stroke="#E0001A" stroke-width="2.8346" stroke-linecap="round" stroke-miterlimit="10" x1="40.375" y1="58" x2="87" y2="13.5"/>
<line fill="none" stroke="#E0001A" stroke-width="2.8346" stroke-linecap="round" stroke-miterlimit="10" x1="78.363" y1="21.743" x2="73.875" y2="10.125"/>
<line fill="none" stroke="#E0001A" stroke-width="2.8346" stroke-linecap="round" stroke-miterlimit="10" x1="72.363" y1="26.743" x2="67.875" y2="15.125"/>
<line fill="none" stroke="#E0001A" stroke-width="2.8346" stroke-linecap="round" stroke-miterlimit="10" x1="89.904" y1="26.24" x2="78.334" y2="21.628"/>
<line fill="none" stroke="#E0001A" stroke-width="2.8346" stroke-linecap="round" stroke-miterlimit="10" x1="84.904" y1="32.24" x2="73.334" y2="27.628"/>
</svg>
