<?xml version="1.0" encoding="utf-8"?>
<!-- Generator: Adobe Illustrator 16.0.0, SVG Export Plug-In . SVG Version: 6.00 Build 0)  -->
<!DOCTYPE svg PUBLIC "-//W3C//DTD SVG 1.1//EN" "http://www.w3.org/Graphics/SVG/1.1/DTD/svg11.dtd" [
	<!ENTITY ns_flows "http://ns.adobe.com/Flows/1.0/">
	<!ENTITY ns_extend "http://ns.adobe.com/Extensibility/1.0/">
	<!ENTITY ns_ai "http://ns.adobe.com/AdobeIllustrator/10.0/">
	<!ENTITY ns_graphs "http://ns.adobe.com/Graphs/1.0/">
]>
<svg version="1.1" id="Warstwa_1" xmlns:x="&ns_extend;" xmlns:i="&ns_ai;" xmlns:graph="&ns_graphs;"
	 xmlns="http://www.w3.org/2000/svg" xmlns:xlink="http://www.w3.org/1999/xlink" xmlns:a="http://ns.adobe.com/AdobeSVGViewerExtensions/3.0/"
	 x="0px" y="0px" width="100px" height="100px" viewBox="0 0 100 100" enable-background="new 0 0 100 100" xml:space="preserve">
<g id="XMLID_12_">
	<path id="XMLID_1598_" fill="#E0001A" d="M35.415,43.452C21.4,43.452,10,54.85,10,68.865c0,14.014,11.4,25.412,25.415,25.412
		c11.079,0,20.518-7.129,23.989-17.037c1.716,0.068,3.281,0.092,4.568,0.092c7.803,0,25.954-0.824,25.954-8.471
		c0-0.027,0-0.047-0.004-0.07c0.004-0.023,0.004-0.039,0.004-0.061v-9.758v-0.451C89.973,58.295,90,58.063,90,57.822
		c0-0.229-0.03-0.445-0.073-0.658v-8.402C89.973,48.536,90,48.3,90,48.06c0-0.226-0.03-0.445-0.073-0.658v-9.349
		C89.973,37.827,90,37.59,90,37.348c0-0.4-0.08-0.776-0.21-1.137c0.083-0.337,0.137-0.685,0.137-1.052c0-0.025,0-0.046-0.004-0.07
		c0.004-0.021,0.004-0.042,0.004-0.058V24.82C89.973,24.592,90,24.361,90,24.118c0-0.226-0.03-0.444-0.073-0.659v-9.351
		C89.973,13.882,90,13.648,90,13.407c0-0.416-0.084-0.806-0.22-1.179c-0.227-0.785-0.719-1.441-1.37-1.854
		c-5.303-4.497-22.196-4.651-24.438-4.651s-19.132,0.155-24.435,4.651c-0.655,0.413-1.141,1.067-1.37,1.851
		c-0.136,0.375-0.22,0.765-0.22,1.182c0,0.241,0.023,0.476,0.07,0.702v9.35c-0.043,0.214-0.07,0.434-0.07,0.66
		c0,0.243,0.023,0.474,0.07,0.702v10.21c0,0.023,0.003,0.045,0.003,0.068c0,0.02-0.003,0.042-0.003,0.06
		c0,0.368,0.057,0.715,0.14,1.052c-0.13,0.363-0.21,0.737-0.21,1.137c0,0.243,0.023,0.479,0.07,0.705v5.533
		C37.164,43.496,36.293,43.452,35.415,43.452z M86.961,68.654c-0.004,0.064-0.007,0.127-0.004,0.184c0,0.023,0,0.053,0.004,0.082
		c-0.146,2.85-10.404,5.158-22.988,5.158c-1.25,0-2.471-0.031-3.671-0.074c0.346-1.658,0.525-3.381,0.525-5.139
		c0-0.449-0.014-0.895-0.033-1.342c1.167,0.037,2.254,0.051,3.179,0.051c5.852,0,17.519-0.465,22.988-3.92V68.654z M86.961,58.893
		c-0.004,0.064-0.007,0.127-0.004,0.188c0,0.021,0,0.053,0.004,0.082c-0.146,2.846-10.404,5.154-22.988,5.154
		c-1.217,0-2.404-0.027-3.571-0.066c-0.498-2.697-1.416-5.244-2.689-7.572c2.377,0.141,4.565,0.188,6.261,0.188
		c5.852,0,17.519-0.467,22.988-3.924V58.893z M86.961,34.951c-0.004,0.064-0.007,0.129-0.004,0.185c0,0.025,0,0.053,0.004,0.084
		c-0.146,2.846-10.404,5.157-22.988,5.157c-12.588,0-22.842-2.311-22.988-5.16c0.003-0.056,0.007-0.111,0.007-0.159
		c-0.004-0.034-0.007-0.07-0.007-0.11l-0.007-5.952c5.473,3.461,17.144,3.923,22.995,3.923S81.491,32.457,86.961,29V34.951z
		 M63.973,9.472c13.053,0,21.14,2.422,22.506,3.935c-1.366,1.513-9.453,3.935-22.506,3.935c-13.05,0-21.14-2.422-22.503-3.935
		C42.833,11.894,50.923,9.472,63.973,9.472z M63.973,21.092c2.068,0,16.581-0.133,22.988-3.677v6.824
		c-0.004,0.065-0.007,0.128-0.004,0.183c0,0.026,0,0.055,0.004,0.084c-0.146,2.85-10.404,5.157-22.988,5.157
		c-12.588,0-22.842-2.308-22.988-5.159c0.003-0.057,0.007-0.113,0.007-0.161c-0.004-0.03-0.007-0.068-0.007-0.106l-0.007-6.824
		C47.388,20.959,61.904,21.092,63.973,21.092z M63.973,45.035c2.068,0,16.581-0.133,22.988-3.677v6.823
		c-0.004,0.066-0.007,0.13-0.004,0.187c0,0.023,0,0.053,0.004,0.086c-0.146,2.846-10.404,5.153-22.988,5.153
		c-3.02,0-5.898-0.135-8.545-0.379c-3.558-4.544-8.628-7.849-14.446-9.156l-0.004-2.713C47.388,44.902,61.904,45.035,63.973,45.035z
		 M57.575,68.865c0,12.219-9.941,22.16-22.16,22.16s-22.157-9.941-22.157-22.16c0-12.221,9.938-22.158,22.157-22.158
		S57.575,56.645,57.575,68.865z"/>
	<path id="XMLID_1595_" fill="#E0001A" d="M18.292,68.861c0,9.445,7.681,17.127,17.123,17.127c9.439,0,17.123-7.682,17.123-17.127
		c0-9.443-7.684-17.123-17.123-17.123C25.973,51.738,18.292,59.418,18.292,68.861z M50.367,68.861
		c0,8.248-6.71,14.955-14.952,14.955c-8.245,0-14.952-6.707-14.952-14.955c0-8.242,6.707-14.949,14.952-14.949
		C43.657,53.912,50.367,60.619,50.367,68.861z"/>
</g>
<g>
	<path fill="#E0001A" d="M26.71,74.197l4.208-5.381c0.575-0.689,1.058-1.242,1.656-1.886v-0.046h-5.45v-2.254h8.899v1.725
		l-4.116,5.266c-0.552,0.668-1.081,1.311-1.656,1.909v0.046h5.91v2.254H26.71V74.197z"/>
	<path fill="#E0001A" d="M38.256,75.83v-5.887l-1.541,1.264v-2.092l1.541-1.266v-8.347h2.828v6.209l1.633-1.334v2.093l-1.633,1.356
		v8.003H38.256z"/>
</g>
</svg>
