<?xml version="1.0" encoding="utf-8"?>
<!-- Generator: Adobe Illustrator 16.0.0, SVG Export Plug-In . SVG Version: 6.00 Build 0)  -->
<!DOCTYPE svg PUBLIC "-//W3C//DTD SVG 1.1//EN" "http://www.w3.org/Graphics/SVG/1.1/DTD/svg11.dtd" [
	<!ENTITY ns_flows "http://ns.adobe.com/Flows/1.0/">
	<!ENTITY ns_extend "http://ns.adobe.com/Extensibility/1.0/">
	<!ENTITY ns_ai "http://ns.adobe.com/AdobeIllustrator/10.0/">
	<!ENTITY ns_graphs "http://ns.adobe.com/Graphs/1.0/">
]>
<svg version="1.1" id="Warstwa_1" xmlns:x="&ns_extend;" xmlns:i="&ns_ai;" xmlns:graph="&ns_graphs;"
	 xmlns="http://www.w3.org/2000/svg" xmlns:xlink="http://www.w3.org/1999/xlink" xmlns:a="http://ns.adobe.com/AdobeSVGViewerExtensions/3.0/"
	 x="0px" y="0px" width="100px" height="100px" viewBox="0 0 100 100" enable-background="new 0 0 100 100" xml:space="preserve">
<g>
	<g>
		<path fill="#E0001A" d="M49.785,20.518c-0.722,0.006-1.313-0.574-1.318-1.296l-0.049-6.045c-0.005-0.722,0.575-1.312,1.297-1.318
			c0.722-0.006,1.312,0.575,1.317,1.297l0.049,6.045C51.087,19.922,50.507,20.513,49.785,20.518z"/>
		<path fill="#E0001A" d="M56.99,21.408c-0.112,0.001-0.227-0.013-0.34-0.042c-0.699-0.181-1.119-0.895-0.938-1.593l1.518-5.852
			c0.181-0.699,0.889-1.123,1.593-0.938c0.698,0.181,1.118,0.895,0.937,1.594l-1.517,5.851
			C58.092,21.014,57.567,21.403,56.99,21.408z"/>
		<path fill="#E0001A" d="M63.716,24.131c-0.222,0.002-0.447-0.053-0.654-0.17c-0.628-0.356-0.849-1.153-0.492-1.782l2.979-5.259
			c0.355-0.628,1.152-0.85,1.781-0.493c0.63,0.356,0.849,1.153,0.494,1.782l-2.98,5.259C64.604,23.889,64.167,24.127,63.716,24.131z
			"/>
		<path fill="#E0001A" d="M69.511,28.502c-0.335,0.003-0.671-0.122-0.928-0.375c-0.515-0.507-0.521-1.333-0.015-1.849l4.24-4.309
			c0.507-0.515,1.333-0.521,1.848-0.015s0.521,1.333,0.015,1.849l-4.24,4.31C70.179,28.369,69.845,28.5,69.511,28.502z"/>
		<path fill="#E0001A" d="M73.976,34.224c-0.451,0.003-0.892-0.227-1.138-0.644c-0.366-0.623-0.158-1.424,0.464-1.79l5.211-3.065
			c0.621-0.366,1.423-0.158,1.789,0.464c0.365,0.623,0.159,1.423-0.465,1.79l-5.21,3.065C74.424,34.165,74.197,34.222,73.976,34.224
			z"/>
		<path fill="#E0001A" d="M76.806,40.907c-0.577,0.005-1.108-0.376-1.269-0.959c-0.194-0.696,0.215-1.416,0.91-1.608l5.827-1.611
			c0.697-0.196,1.416,0.215,1.607,0.911c0.193,0.696-0.216,1.416-0.911,1.608l-5.827,1.611
			C77.031,40.891,76.918,40.907,76.806,40.907z"/>
		<path fill="#E0001A" d="M83.857,48.046l-6.045,0.049c-0.721,0.005-1.312-0.575-1.317-1.297s0.575-1.312,1.297-1.318l6.045-0.048
			c0.721-0.006,1.313,0.574,1.317,1.296C85.16,47.45,84.58,48.04,83.857,48.046z"/>
		<path fill="#E0001A" d="M82.776,56.815c-0.112,0.002-0.226-0.014-0.34-0.042l-5.851-1.518c-0.699-0.181-1.12-0.894-0.939-1.593
			c0.181-0.698,0.89-1.122,1.595-0.936l5.853,1.516c0.698,0.181,1.116,0.896,0.936,1.593C83.879,56.422,83.354,56.812,82.776,56.815
			z"/>
		<path fill="#E0001A" d="M41.516,81.086c-0.111,0-0.226-0.014-0.339-0.042c-0.699-0.183-1.119-0.896-0.937-1.595l1.518-5.852
			c0.181-0.697,0.897-1.117,1.593-0.936c0.699,0.181,1.118,0.895,0.937,1.593l-1.518,5.852
			C42.618,80.692,42.093,81.08,41.516,81.086z"/>
		<path fill="#E0001A" d="M33.323,77.769c-0.221,0.003-0.446-0.052-0.653-0.169c-0.629-0.356-0.849-1.152-0.494-1.782l2.98-5.259
			c0.355-0.628,1.151-0.85,1.782-0.494c0.628,0.357,0.849,1.155,0.493,1.783l-2.979,5.259
			C34.212,77.528,33.775,77.767,33.323,77.769z"/>
		<path fill="#E0001A" d="M26.271,72.448c-0.334,0.003-0.67-0.123-0.927-0.376c-0.514-0.505-0.521-1.334-0.015-1.849l4.239-4.308
			c0.506-0.515,1.333-0.522,1.848-0.017c0.514,0.506,0.521,1.334,0.015,1.849l-4.239,4.31
			C26.939,72.314,26.605,72.446,26.271,72.448z"/>
		<path fill="#E0001A" d="M20.836,65.482c-0.452,0.004-0.893-0.228-1.139-0.645c-0.366-0.623-0.159-1.424,0.464-1.79l5.211-3.065
			c0.622-0.367,1.422-0.157,1.79,0.465c0.365,0.622,0.159,1.424-0.464,1.79l-5.211,3.064C21.283,65.422,21.058,65.48,20.836,65.482z
			"/>
		<path fill="#E0001A" d="M17.387,57.347c-0.577,0.004-1.108-0.378-1.27-0.961c-0.192-0.694,0.215-1.414,0.911-1.606l5.826-1.611
			c0.701-0.197,1.416,0.216,1.608,0.911c0.193,0.695-0.215,1.415-0.911,1.607l-5.826,1.611
			C17.612,57.33,17.499,57.346,17.387,57.347z"/>
		<path fill="#E0001A" d="M22.208,48.546l-6.044,0.048c-0.722,0.006-1.313-0.575-1.318-1.296c-0.006-0.722,0.575-1.312,1.296-1.317
			l6.044-0.049c0.722-0.005,1.313,0.575,1.318,1.296C23.511,47.95,22.93,48.54,22.208,48.546z"/>
		<path fill="#E0001A" d="M23.098,41.343c-0.111,0-0.225-0.013-0.339-0.043l-5.851-1.517c-0.699-0.181-1.118-0.894-0.937-1.593
			c0.181-0.698,0.89-1.122,1.593-0.937l5.852,1.517c0.699,0.18,1.119,0.894,0.938,1.593C24.2,40.948,23.676,41.338,23.098,41.343z"
			/>
		<path fill="#E0001A" d="M25.819,34.615c-0.221,0.001-0.446-0.053-0.653-0.169l-5.26-2.98c-0.628-0.356-0.848-1.153-0.493-1.782
			c0.356-0.628,1.15-0.849,1.782-0.493l5.259,2.979c0.629,0.356,0.849,1.153,0.494,1.782C26.708,34.373,26.271,34.611,25.819,34.615
			z"/>
		<path fill="#E0001A" d="M30.191,28.821c-0.333,0.003-0.67-0.122-0.927-0.375l-4.309-4.239c-0.515-0.507-0.521-1.334-0.015-1.849
			c0.506-0.515,1.333-0.521,1.848-0.015l4.309,4.239c0.515,0.507,0.522,1.334,0.015,1.849
			C30.859,28.688,30.526,28.818,30.191,28.821z"/>
		<path fill="#E0001A" d="M35.916,24.356c-0.452,0.003-0.893-0.227-1.138-0.645l-3.065-5.211c-0.365-0.622-0.158-1.423,0.464-1.789
			c0.621-0.367,1.423-0.159,1.79,0.464l3.064,5.211c0.366,0.623,0.159,1.423-0.464,1.789C36.362,24.296,36.137,24.354,35.916,24.356
			z"/>
		<path fill="#E0001A" d="M42.596,21.524c-0.577,0.004-1.108-0.376-1.269-0.959l-1.612-5.826c-0.193-0.696,0.215-1.416,0.911-1.608
			c0.695-0.196,1.417,0.215,1.608,0.911l1.613,5.826c0.192,0.696-0.215,1.416-0.911,1.608
			C42.822,21.508,42.708,21.523,42.596,21.524z"/>
		<path fill="#E0001A" d="M50.01,48.32c-0.34,0.002-0.675-0.127-0.927-0.376l-8.344-8.208c-0.515-0.506-0.521-1.333-0.015-1.849
			c0.506-0.515,1.333-0.521,1.849-0.014l6.094,5.996l-0.116-14.354c-0.006-0.722,0.575-1.312,1.297-1.318
			c0.722-0.005,1.312,0.575,1.316,1.297l0.143,17.509c0.004,0.529-0.311,1.008-0.797,1.214C50.348,48.285,50.179,48.319,50.01,48.32
			z"/>
		<path fill="#E0001A" d="M65.763,92.985c-10.136,0.082-18.448-8.095-18.53-18.229c-0.042-5.249,2.168-10.277,6.065-13.795
			c0.536-0.484,1.361-0.442,1.845,0.095c0.484,0.534,0.442,1.362-0.093,1.846c-3.344,3.018-5.239,7.33-5.203,11.832
			c0.07,8.692,7.2,15.71,15.896,15.639c8.692-0.071,15.708-7.2,15.639-15.895c-0.006-0.721,0.574-1.312,1.296-1.317
			c0.721-0.006,1.312,0.575,1.317,1.297C84.076,84.592,75.897,92.903,65.763,92.985z"/>
		<path fill="#E0001A" d="M54.185,63.238c-0.361,0.002-0.721-0.143-0.982-0.432c-0.483-0.533-0.44-1.361,0.095-1.846
			c0.693-0.627,1.442-1.206,2.224-1.721c0.602-0.396,1.415-0.229,1.812,0.373c0.396,0.604,0.229,1.413-0.375,1.812
			c-0.671,0.44-1.313,0.938-1.907,1.477C54.803,63.124,54.494,63.236,54.185,63.238z"/>
		<path fill="#E0001A" d="M81.03,68.542c-0.49,0.004-0.964-0.27-1.19-0.743c-0.646-1.347-1.48-2.596-2.481-3.714
			c-0.482-0.536-0.437-1.363,0.102-1.845s1.363-0.438,1.845,0.102c1.167,1.301,2.14,2.757,2.894,4.328
			c0.313,0.649,0.036,1.432-0.614,1.743C81.405,68.499,81.216,68.54,81.03,68.542z M74.637,61.408
			c-0.24,0.003-0.481-0.061-0.7-0.197c-1.274-0.792-2.649-1.396-4.089-1.798c-0.695-0.194-1.104-0.914-0.909-1.609
			s0.916-1.1,1.609-0.908c1.681,0.468,3.284,1.173,4.771,2.096c0.613,0.382,0.799,1.188,0.419,1.801
			C75.491,61.187,75.069,61.405,74.637,61.408z M60.63,59.581c-0.563,0.005-1.088-0.359-1.262-0.926
			c-0.211-0.691,0.18-1.421,0.87-1.632c1.661-0.507,3.394-0.775,5.146-0.797c0.726-0.006,1.313,0.57,1.324,1.29
			c0.009,0.723-0.569,1.313-1.291,1.324c-1.506,0.019-2.992,0.248-4.416,0.684C60.878,59.561,60.753,59.58,60.63,59.581z"/>
		<path fill="#E0001A" d="M82.697,75.773c-0.722,0.007-1.312-0.574-1.316-1.296c-0.007-0.807-0.076-1.617-0.203-2.409
			c-0.115-0.712,0.369-1.382,1.081-1.497c0.706-0.111,1.385,0.368,1.5,1.081c0.147,0.922,0.228,1.865,0.235,2.805
			C84,75.179,83.419,75.769,82.697,75.773z"/>
		<path fill="#E0001A" d="M45.289,86.728c-0.056,0-0.113-0.002-0.17-0.009C25.26,84.302,10.164,67.372,10.001,47.337
			C9.823,25.282,27.62,7.194,49.676,7.015C71.73,6.836,89.819,24.634,89.999,46.689c0.049,6.131-1.26,12.029-3.89,17.53
			c-0.312,0.653-1.092,0.931-1.743,0.616c-0.651-0.311-0.928-1.092-0.615-1.742c2.457-5.14,3.681-10.651,3.634-16.383
			C87.218,26.096,70.31,9.462,49.697,9.629C29.083,9.796,12.449,26.703,12.616,47.316c0.152,18.726,14.26,34.55,32.818,36.808
			c0.717,0.088,1.227,0.739,1.14,1.454C46.494,86.238,45.935,86.723,45.289,86.728z"/>
		<path fill="#E0001A" d="M62.669,72.53c-1.016,0.009-1.987-0.338-2.717-1.056c-1.604-1.579-1.433-4.365,0.382-6.213
			c1.817-1.846,4.601-2.061,6.206-0.481c0.802,0.788,1.198,1.93,1.089,3.134c-0.103,1.124-0.625,2.218-1.471,3.078
			C65.167,72,63.887,72.521,62.669,72.53z M63.844,66.328c-0.537,0.004-1.158,0.273-1.646,0.768
			c-0.791,0.805-0.98,1.956-0.412,2.517c0.569,0.558,1.718,0.352,2.508-0.453c0.419-0.425,0.685-0.965,0.731-1.48
			c0.023-0.249,0.012-0.712-0.317-1.035C64.487,66.428,64.183,66.325,63.844,66.328z"/>
		<path fill="#E0001A" d="M67.402,85.488c-1.015,0.008-1.987-0.338-2.717-1.055c-1.604-1.58-1.434-4.368,0.384-6.213
			c0.846-0.861,1.929-1.401,3.051-1.521c1.2-0.13,2.353,0.249,3.153,1.037c1.606,1.579,1.434,4.366-0.382,6.212
			C69.899,84.956,68.621,85.479,67.402,85.488z M68.572,79.288c-0.063,0-0.122,0.005-0.173,0.011
			c-0.515,0.055-1.051,0.33-1.467,0.756c-0.794,0.804-0.982,1.956-0.413,2.515s1.717,0.351,2.51-0.454
			c0.791-0.805,0.979-1.957,0.41-2.516C69.177,79.34,68.829,79.285,68.572,79.288z"/>
		<path fill="#E0001A" d="M59.25,82.392c-0.335,0.003-0.67-0.123-0.928-0.376c-0.514-0.507-0.521-1.335-0.015-1.85L71.056,67.21
			c0.507-0.515,1.334-0.521,1.849-0.014c0.515,0.507,0.521,1.333,0.014,1.848L60.17,82C59.918,82.258,59.584,82.389,59.25,82.392z"
			/>
	</g>
</g>
</svg>
