<?xml version="1.0" encoding="utf-8"?>
<!-- Generator: Adobe Illustrator 16.0.0, SVG Export Plug-In . SVG Version: 6.00 Build 0)  -->
<!DOCTYPE svg PUBLIC "-//W3C//DTD SVG 1.1//EN" "http://www.w3.org/Graphics/SVG/1.1/DTD/svg11.dtd" [
	<!ENTITY ns_flows "http://ns.adobe.com/Flows/1.0/">
	<!ENTITY ns_extend "http://ns.adobe.com/Extensibility/1.0/">
	<!ENTITY ns_ai "http://ns.adobe.com/AdobeIllustrator/10.0/">
	<!ENTITY ns_graphs "http://ns.adobe.com/Graphs/1.0/">
]>
<svg version="1.1" id="Warstwa_1" xmlns:x="&ns_extend;" xmlns:i="&ns_ai;" xmlns:graph="&ns_graphs;"
	 xmlns="http://www.w3.org/2000/svg" xmlns:xlink="http://www.w3.org/1999/xlink" xmlns:a="http://ns.adobe.com/AdobeSVGViewerExtensions/3.0/"
	 x="0px" y="0px" width="100px" height="100px" viewBox="0 0 100 100" enable-background="new 0 0 100 100" xml:space="preserve">
<g>
	<g>
		<path fill="#E0001A" d="M60.466,91.713H23.544c-0.707,0-1.279-0.572-1.279-1.279V20.078c0-0.707,0.572-1.278,1.279-1.278h53.643
			c0.704,0,1.277,0.571,1.277,1.278v35.095c0,0.707-0.573,1.278-1.277,1.278c-0.707,0-1.281-0.571-1.281-1.278V21.357H24.823v67.797
			h35.643c0.707,0,1.28,0.573,1.28,1.279C61.746,91.141,61.173,91.713,60.466,91.713z"/>
		<path fill="#E0001A" d="M17.412,81.199h-6.132c-0.707,0-1.279-0.573-1.279-1.28V9.566c0-0.707,0.573-1.279,1.279-1.279h53.643
			c0.706,0,1.277,0.572,1.277,1.279v5.256c0,0.707-0.571,1.278-1.277,1.278H18.691v63.818
			C18.691,80.626,18.118,81.199,17.412,81.199z M12.558,78.641h3.575V14.822c0-0.706,0.572-1.279,1.279-1.279h46.23v-2.698H12.558
			V78.641z"/>
		<path fill="#E0001A" d="M23.544,86.457h-6.133c-0.707,0-1.279-0.573-1.279-1.28V14.822c0-0.706,0.572-1.279,1.279-1.279h53.643
			c0.706,0,1.277,0.573,1.277,1.279v5.256c0,0.707-0.571,1.279-1.277,1.279H24.823v63.819C24.823,85.884,24.25,86.457,23.544,86.457
			z M18.691,83.898h3.575v-63.82c0-0.707,0.572-1.278,1.279-1.278h46.23v-2.698H18.691V83.898z"/>
		<path fill="#E0001A" d="M68.75,33.014H31.98c-0.707,0-1.279-0.573-1.279-1.28s0.573-1.279,1.279-1.279h36.77
			c0.706,0,1.278,0.572,1.278,1.279S69.456,33.014,68.75,33.014z"/>
		<path fill="#E0001A" d="M68.75,40.9H31.98c-0.707,0-1.279-0.572-1.279-1.279s0.573-1.279,1.279-1.279h36.77
			c0.706,0,1.278,0.572,1.278,1.279S69.456,40.9,68.75,40.9z"/>
		<path fill="#E0001A" d="M61.371,48.787H31.98c-0.707,0-1.279-0.572-1.279-1.279s0.573-1.279,1.279-1.279h29.391
			c0.707,0,1.28,0.572,1.28,1.279S62.078,48.787,61.371,48.787z"/>
		<path fill="#E0001A" d="M59.293,56.673H31.98c-0.707,0-1.279-0.571-1.279-1.278s0.573-1.279,1.279-1.279h27.313
			c0.707,0,1.28,0.572,1.28,1.279S60,56.673,59.293,56.673z"/>
		<path fill="#E0001A" d="M59.293,64.56H31.98c-0.707,0-1.279-0.571-1.279-1.278s0.573-1.279,1.279-1.279h27.313
			c0.707,0,1.28,0.572,1.28,1.279S60,64.56,59.293,64.56z"/>
		<path fill="#E0001A" d="M59.293,72.447H31.98c-0.707,0-1.279-0.571-1.279-1.278s0.573-1.28,1.279-1.28h27.313
			c0.707,0,1.28,0.573,1.28,1.28S60,72.447,59.293,72.447z"/>
		<path fill="#E0001A" d="M59.293,72.447H31.98c-0.707,0-1.279-0.571-1.279-1.278s0.573-1.28,1.279-1.28h27.313
			c0.707,0,1.28,0.573,1.28,1.28S60,72.447,59.293,72.447z"/>
		<path fill="#E0001A" d="M76.399,88.117c-7.501,0-13.602-6.101-13.602-13.601c0-7.501,6.101-13.602,13.602-13.602
			C83.898,60.915,90,67.016,90,74.517C90,82.017,83.898,88.117,76.399,88.117z M76.399,63.473c-6.09,0-11.044,4.954-11.044,11.044
			c0,6.089,4.954,11.043,11.044,11.043c6.089,0,11.042-4.954,11.042-11.043C87.441,68.427,82.488,63.473,76.399,63.473z"/>
		<path fill="#E0001A" d="M38.1,85.876h-9.288c-0.707,0-1.279-0.571-1.279-1.278s0.572-1.28,1.279-1.28H38.1
			c0.707,0,1.279,0.573,1.279,1.28S38.807,85.876,38.1,85.876z"/>
	</g>
</g>
<polyline fill="none" stroke="#E0001A" stroke-width="2.8346" stroke-linecap="round" stroke-miterlimit="10" points="
	68.458,72.833 74.917,81.333 82.458,68.56 "/>
</svg>
