<?xml version="1.0" encoding="utf-8"?>
<!-- Generator: Adobe Illustrator 16.0.0, SVG Export Plug-In . SVG Version: 6.00 Build 0)  -->
<!DOCTYPE svg PUBLIC "-//W3C//DTD SVG 1.1//EN" "http://www.w3.org/Graphics/SVG/1.1/DTD/svg11.dtd" [
	<!ENTITY ns_flows "http://ns.adobe.com/Flows/1.0/">
	<!ENTITY ns_extend "http://ns.adobe.com/Extensibility/1.0/">
	<!ENTITY ns_ai "http://ns.adobe.com/AdobeIllustrator/10.0/">
	<!ENTITY ns_graphs "http://ns.adobe.com/Graphs/1.0/">
]>
<svg version="1.1" id="Warstwa_1" xmlns:x="&ns_extend;" xmlns:i="&ns_ai;" xmlns:graph="&ns_graphs;"
	 xmlns="http://www.w3.org/2000/svg" xmlns:xlink="http://www.w3.org/1999/xlink" xmlns:a="http://ns.adobe.com/AdobeSVGViewerExtensions/3.0/"
	 x="0px" y="0px" width="100px" height="100px" viewBox="0 0 100 100" enable-background="new 0 0 100 100" xml:space="preserve">
<g>
	<path fill="#E0001A" d="M88.829,88.354H11.17c-0.646,0-1.17-0.523-1.17-1.171c0-3.104,2.495-5.599,5.562-5.599h68.877
		c3.066,0,5.562,2.495,5.562,5.562C90,87.793,89.475,88.354,88.829,88.354z M12.548,86.012h74.903
		c-0.46-1.219-1.637-2.086-3.013-2.086H15.562C14.185,83.926,13.007,84.793,12.548,86.012z"/>
	<path fill="#E0001A" d="M50,43.043c-4.949,0-8.975-4.025-8.975-8.974s4.025-8.974,8.975-8.974c4.947,0,8.973,4.025,8.973,8.974
		S54.947,43.043,50,43.043z M50,27.437c-3.657,0-6.633,2.975-6.633,6.633s2.976,6.633,6.633,6.633c3.656,0,6.632-2.975,6.632-6.633
		S53.656,27.437,50,27.437z"/>
	<path fill="#E0001A" d="M81.524,33.015H57.478c-0.519,0-0.976-0.341-1.123-0.837c-0.83-2.792-3.443-4.741-6.354-4.741
		c-2.913,0-5.525,1.949-6.356,4.741c-0.146,0.497-0.604,0.837-1.122,0.837H18.475c-0.526,0-0.987-0.351-1.128-0.857
		s0.073-1.044,0.523-1.316l31.524-19.026c0.372-0.226,0.838-0.226,1.21,0l31.524,19.026c0.451,0.272,0.664,0.81,0.524,1.316
		C82.511,32.665,82.05,33.015,81.524,33.015z M58.304,30.674h19.015L50,14.186L22.681,30.674h19.015
		c1.364-3.324,4.662-5.579,8.305-5.579C53.641,25.095,56.939,27.35,58.304,30.674z"/>
	<path fill="#E0001A" d="M43.052,38.781H17.303c-2.235,0-4.054-1.819-4.054-4.055c0-2.235,1.818-4.053,4.054-4.053h25.219
		c0.37,0,0.718,0.174,0.939,0.471c0.221,0.297,0.288,0.679,0.183,1.033c-0.184,0.619-0.276,1.255-0.276,1.892
		c0,1.052,0.244,2.064,0.727,3.008c0.186,0.363,0.169,0.795-0.044,1.144C43.838,38.569,43.459,38.781,43.052,38.781z M17.303,33.015
		c-0.944,0-1.712,0.769-1.712,1.711c0,0.945,0.768,1.713,1.712,1.713h24.042c-0.213-0.767-0.319-1.56-0.319-2.371
		c0-0.352,0.021-0.705,0.063-1.054H17.303z"/>
	<path fill="#E0001A" d="M82.696,38.781H56.948c-0.408,0-0.787-0.212-1.001-0.56c-0.212-0.348-0.228-0.781-0.042-1.144
		c0.481-0.944,0.727-1.957,0.727-3.008c0-0.635-0.093-1.271-0.277-1.893c-0.105-0.354-0.036-0.737,0.185-1.033
		c0.22-0.295,0.568-0.47,0.938-0.47h25.219c2.234,0,4.054,1.818,4.054,4.053C86.75,36.962,84.931,38.781,82.696,38.781z
		 M58.654,36.44h24.042c0.943,0,1.712-0.769,1.712-1.713c0-0.943-0.769-1.711-1.712-1.711H58.912
		c0.041,0.35,0.061,0.703,0.061,1.054C58.973,34.88,58.867,35.673,58.654,36.44z"/>
	<path fill="#E0001A" d="M32.426,83.926H19.629c-0.646,0-1.171-0.523-1.171-1.171V37.611c0-0.647,0.525-1.171,1.171-1.171h12.797
		c0.646,0,1.17,0.523,1.17,1.171v45.144C33.596,83.402,33.072,83.926,32.426,83.926z M20.801,81.584h10.453V38.781H20.801V81.584z"
		/>
	<path fill="#E0001A" d="M80.371,83.926H67.573c-0.646,0-1.169-0.523-1.169-1.171V37.611c0-0.647,0.523-1.171,1.169-1.171h12.798
		c0.646,0,1.169,0.523,1.169,1.171v45.144C81.54,83.402,81.017,83.926,80.371,83.926z M68.745,81.584h10.454V38.781H68.745V81.584z"
		/>
	<path fill="#E0001A" d="M56.396,83.926H43.602c-0.646,0-1.171-0.523-1.171-1.171V38.531c0-0.511,0.332-0.963,0.819-1.118
		c0.486-0.155,1.018,0.028,1.312,0.446c1.243,1.78,3.276,2.843,5.438,2.843c2.161,0,4.193-1.063,5.438-2.843
		c0.293-0.418,0.823-0.601,1.312-0.446c0.488,0.154,0.819,0.606,0.819,1.118v44.224C57.568,83.402,57.044,83.926,56.396,83.926z
		 M44.772,81.584h10.454V41.358c-1.508,1.083-3.329,1.686-5.227,1.686s-3.721-0.603-5.228-1.686V81.584z"/>
	<path fill="#E0001A" d="M32.426,76.099H19.629c-0.646,0-1.171-0.523-1.171-1.171c0-0.646,0.525-1.17,1.171-1.17h12.797
		c0.646,0,1.17,0.523,1.17,1.17C33.596,75.575,33.072,76.099,32.426,76.099z"/>
	<path fill="#E0001A" d="M56.396,76.099H43.602c-0.646,0-1.171-0.523-1.171-1.171c0-0.646,0.524-1.17,1.171-1.17h12.795
		c0.647,0,1.172,0.523,1.172,1.17C57.568,75.575,57.044,76.099,56.396,76.099z"/>
	<path fill="#E0001A" d="M80.371,76.099H67.573c-0.646,0-1.169-0.523-1.169-1.171c0-0.646,0.523-1.17,1.169-1.17h12.798
		c0.646,0,1.169,0.523,1.169,1.17C81.54,75.575,81.017,76.099,80.371,76.099z"/>
</g>
</svg>
