<?xml version="1.0" encoding="utf-8"?>
<!-- Generator: Adobe Illustrator 16.0.0, SVG Export Plug-In . SVG Version: 6.00 Build 0)  -->
<!DOCTYPE svg PUBLIC "-//W3C//DTD SVG 1.1//EN" "http://www.w3.org/Graphics/SVG/1.1/DTD/svg11.dtd" [
	<!ENTITY ns_flows "http://ns.adobe.com/Flows/1.0/">
	<!ENTITY ns_extend "http://ns.adobe.com/Extensibility/1.0/">
	<!ENTITY ns_ai "http://ns.adobe.com/AdobeIllustrator/10.0/">
	<!ENTITY ns_graphs "http://ns.adobe.com/Graphs/1.0/">
]>
<svg version="1.1" id="Warstwa_1" xmlns:x="&ns_extend;" xmlns:i="&ns_ai;" xmlns:graph="&ns_graphs;"
	 xmlns="http://www.w3.org/2000/svg" xmlns:xlink="http://www.w3.org/1999/xlink" xmlns:a="http://ns.adobe.com/AdobeSVGViewerExtensions/3.0/"
	 x="0px" y="0px" width="100px" height="100px" viewBox="0 0 100 100" enable-background="new 0 0 100 100" xml:space="preserve">
<g>
	<path fill="#E0001A" d="M49.999,96.758c-0.194,0-0.39-0.04-0.571-0.119C10.444,79.566,10,19.351,10,18.746
		c0-0.726,0.547-1.337,1.269-1.417C33.712,14.866,48.997,3.637,49.147,3.523c0.506-0.375,1.197-0.375,1.703,0
		c0.152,0.113,15.477,11.347,37.88,13.806c0.724,0.079,1.27,0.69,1.27,1.417c0,0.605-0.445,60.821-39.429,77.893
		C50.388,96.718,50.194,96.758,49.999,96.758z M12.878,20.009c0.292,8.597,3.45,58.478,37.121,73.766
		c33.693-15.295,36.835-65.17,37.123-73.766C67.374,17.535,53.51,8.816,49.999,6.41C46.489,8.816,32.625,17.535,12.878,20.009z"/>
	<path fill="#E0001A" d="M49.996,90.854l-0.645-0.329C22.274,76.762,16.81,39.136,15.717,23.598l-0.09-1.29l1.273-0.214
		c15.358-2.59,26.858-8.66,32.347-12.046l0.749-0.462l0.748,0.462c5.488,3.388,16.991,9.458,32.354,12.048l1.273,0.214l-0.089,1.289
		c-1.072,15.529-6.495,53.139-33.642,66.928L49.996,90.854z M18.655,24.677c1.064,12.978,6.288,49.663,31.341,62.975
		c25.118-13.335,30.303-50.001,31.35-62.974c-14.544-2.665-25.593-8.291-31.35-11.753C44.24,16.387,33.193,22.014,18.655,24.677z"/>
	<path fill="#E0001A" d="M50.007,7.515l-0.014-2.85C50.007,4.666,50.007,7.515,50.007,7.515z"/>
	<path fill="#E0001A" d="M62.698,60.385H37.301c-0.787,0-1.424-0.638-1.424-1.425V36.886c0-0.787,0.637-1.425,1.424-1.425h25.397
		c0.787,0,1.426,0.638,1.426,1.425V58.96C64.124,59.747,63.485,60.385,62.698,60.385z M38.725,57.535h22.55V38.31h-22.55V57.535z"/>
	<path fill="#E0001A" d="M66.171,38.309H33.83c-0.6,0-1.135-0.376-1.339-0.938c-0.204-0.564-0.036-1.194,0.425-1.579l16.169-13.528
		c0.529-0.443,1.3-0.443,1.828,0l16.17,13.528c0.461,0.385,0.631,1.015,0.426,1.579C67.304,37.933,66.771,38.309,66.171,38.309z
		 M37.75,35.46h24.499l-12.25-10.25L37.75,35.46z"/>
	<path fill="#E0001A" d="M53.337,60.385h-6.675c-0.787,0-1.424-0.638-1.424-1.425V47.923c0-0.788,0.637-1.424,1.424-1.424h6.675
		c0.786,0,1.424,0.636,1.424,1.424V58.96C54.761,59.747,54.123,60.385,53.337,60.385z M48.086,57.535h3.827v-8.188h-3.827V57.535z"
		/>
	<path fill="#E0001A" d="M66.705,60.385h-33.41c-0.786,0-1.424-0.638-1.424-1.425c0-0.786,0.638-1.425,1.424-1.425h33.41
		c0.785,0,1.424,0.639,1.424,1.425C68.129,59.747,67.49,60.385,66.705,60.385z"/>
	<path fill="#E0001A" d="M62.093,66.911H37.905c-0.786,0-1.424-0.637-1.424-1.424s0.638-1.424,1.424-1.424h24.188
		c0.787,0,1.424,0.637,1.424,1.424S62.88,66.911,62.093,66.911z"/>
</g>
</svg>
